<svg width="211" height="211" viewBox="0 0 211 211" fill="none" xmlns="http://www.w3.org/2000/svg">
<circle cx="105.5" cy="105.5" r="105.5" fill="#F74600"/>
<path d="M94.625 141.562H94.375V149H74.625V54.25H94.375V94.625H94.625C99.5 87.1667 106.438 83.4375 115.438 83.4375C123.688 83.4375 130.042 86.2708 134.5 91.9375C138.958 97.6042 141.188 105.354 141.188 115.188C141.188 125.854 138.583 134.417 133.375 140.875C128.167 147.333 121.208 150.562 112.5 150.562C104.625 150.562 98.6667 147.562 94.625 141.562ZM94.0625 114.562V121.125C94.0625 125.25 95.25 128.667 97.625 131.375C100 134.083 103.042 135.438 106.75 135.438C111.25 135.438 114.729 133.708 117.188 130.25C119.688 126.75 120.938 121.812 120.938 115.438C120.938 110.146 119.792 106.021 117.5 103.062C115.25 100.062 112.021 98.5625 107.812 98.5625C103.854 98.5625 100.562 100.042 97.9375 103C95.3542 105.958 94.0625 109.812 94.0625 114.562Z" fill="black"/>
<path d="M137.575 73H134.555V61.24H130.675V58.72H141.455V61.24H137.575V73ZM149.697 73L146.257 61.8H146.177C146.191 62.0667 146.211 62.4667 146.237 63C146.264 63.5333 146.291 64.1067 146.317 64.72C146.344 65.32 146.357 65.8667 146.357 66.36V73H143.657V58.72H147.777L151.157 69.64H151.217L154.797 58.72H158.917V73H156.097V66.24C156.097 65.7867 156.104 65.2667 156.117 64.68C156.144 64.0933 156.164 63.54 156.177 63.02C156.204 62.4867 156.224 62.0867 156.237 61.82H156.157L152.477 73H149.697Z" fill="black"/>
</svg>
